<svg width="52" height="51" viewBox="0 0 52 51" fill="none" xmlns="http://www.w3.org/2000/svg">
<path d="M0.831395 49.984C1.24257 50.3952 1.77013 50.6702 2.34271 50.7718C2.91529 50.8734 3.50526 50.7966 4.03281 50.552L33.3589 37.926C34.7943 37.2605 35.1297 35.3698 34.011 34.2509L16.6278 16.8677C15.509 15.7489 13.6183 16.0844 12.9527 17.5198L0.263393 46.7825C0.0187717 47.3101 -0.0579321 47.9001 0.0436546 48.4726C0.145241 49.0452 0.420217 49.5728 0.831395 49.984Z" fill="#FFE266"/>
<path d="M25.2607 35.1601L3.70331 44.4413C3.33205 44.6133 2.91843 44.6723 2.51391 44.6109C2.10939 44.5496 1.73185 44.3706 1.42828 44.0963L0.263397 46.7826C0.0187702 47.3101 -0.0579342 47.9001 0.0436576 48.4726C0.145249 49.0452 0.420236 49.5727 0.831426 49.9839C1.24262 50.3951 1.77017 50.6701 2.34274 50.7717C2.9153 50.8733 3.50526 50.7966 4.03281 50.552L33.0777 38.0472C32.4085 37.7789 25.3695 35.1097 25.2607 35.1601Z" fill="#EFAA66"/>
<path d="M34.2121 36.7416C36.2163 34.7375 33.3024 28.5741 27.7037 22.9754C22.105 17.3768 15.9417 14.4629 13.9375 16.4671C11.9333 18.4712 14.8472 24.6346 20.4459 30.2332C26.0446 35.8319 32.2079 38.7458 34.2121 36.7416Z" fill="#FFE266"/>
<path d="M29.1377 34.159C30.4524 32.8442 28.3229 28.5832 24.3813 24.6415C20.4397 20.6999 16.1786 18.5704 14.8639 19.8851C13.5492 21.1998 15.6787 25.4609 19.6203 29.4025C23.5619 33.3441 27.823 35.4737 29.1377 34.159Z" fill="#EFAA66"/>
<path d="M32.4064 38.4171C29.212 38.4171 24.2649 35.5216 19.7138 30.9705C15.5812 26.8378 12.7493 22.2865 12.3237 19.0927C12.2477 18.522 12.6485 17.9978 13.2192 17.9218C13.7894 17.846 14.3142 18.2466 14.3901 18.8173C14.7528 21.5378 17.4211 25.7296 21.188 29.4964C26.0011 34.3094 30.4393 36.408 32.5252 36.33C33.0997 36.3091 33.5852 36.755 33.6081 37.3303C33.6309 37.9055 33.1831 38.3904 32.6078 38.4132C32.5407 38.4158 32.4736 38.4171 32.4064 38.4171Z" fill="#D0844B"/>
<path d="M21.2663 22.3248C21.0137 22.0722 20.8287 21.7602 20.728 21.4175L19.7641 18.1548C19.4 16.9227 19.7286 15.6026 20.6214 14.7097L22.3737 12.9575C23.2666 12.0646 24.5867 11.7361 25.8188 12.1002L29.3285 13.0908L28.1448 8.86753C27.8094 7.73225 28.4578 6.54006 29.5931 6.20462C30.7284 5.86918 31.9206 6.51765 32.2561 7.65293L33.22 10.9156C33.584 12.1478 33.2556 13.4679 32.3628 14.3607L30.6105 16.1129C29.7177 17.0057 28.3976 17.3342 27.1655 16.9702L23.6199 15.814L24.8394 20.2029C25.1748 21.3381 24.5263 22.5303 23.3911 22.8658C22.6108 23.0963 21.8037 22.8621 21.2663 22.3248Z" fill="#CAB4EF"/>
<path d="M29.3298 13.0908L25.82 12.1002C24.7609 11.7873 23.6372 11.9864 22.7754 12.6153C23.0167 13.5802 23.3237 14.8638 23.621 15.8139L27.1666 16.9701C28.2759 17.2978 29.4562 17.064 30.3321 16.3627C30.0219 15.3916 29.625 14.0665 29.3298 13.0908Z" fill="#A183E2"/>
<path d="M34.8394 20.7993C35.092 21.0519 35.404 21.237 35.7467 21.3376L39.0094 22.3015C40.2414 22.6655 41.5616 22.3371 42.4544 21.4442L44.2067 19.692C45.0996 18.7991 45.4281 17.479 45.064 16.2468L44.0734 12.7371L48.2966 13.9207C49.4319 14.2562 50.6242 13.6077 50.9597 12.4724C51.2951 11.3372 50.6466 10.145 49.5114 9.80952L46.2486 8.84561C45.0164 8.48161 43.6963 8.81017 42.8036 9.70288L41.0514 11.4552C40.1585 12.348 39.8301 13.6681 40.1941 14.9002L41.3502 18.4458L36.9613 17.2263C35.826 16.8908 34.6338 17.5393 34.2984 18.6746C34.0678 19.4548 34.302 20.262 34.8394 20.7993Z" fill="#F7C4DB"/>
<path d="M45.0656 16.2468L44.075 12.737C43.0539 12.517 41.6254 12.2354 40.6062 12.0068C40.0605 12.8465 39.9008 13.9021 40.1957 14.9002L41.3518 18.4458C42.4089 18.7068 43.5275 18.8869 44.5424 19.3025C45.1777 18.4392 45.3799 17.3103 45.0656 16.2468Z" fill="#EF8BBD"/>
<path d="M39.8294 3.17319C39.1498 3.85283 38.0478 3.85283 37.3681 3.17319C36.6885 2.49355 36.6885 1.39152 37.3681 0.711881C38.0478 0.0322376 39.1498 0.0322376 39.8294 0.711881C40.5091 1.39163 40.5091 2.49355 39.8294 3.17319Z" fill="#FFA585"/>
<path d="M42.4582 32.087C43.4194 32.087 44.1985 31.3078 44.1985 30.3466C44.1985 29.3854 43.4194 28.6062 42.4582 28.6062C41.497 28.6062 40.7178 29.3854 40.7178 30.3466C40.7178 31.3078 41.497 32.087 42.4582 32.087Z" fill="#78EAC4"/>
<path d="M32.932 31.8934C32.2523 32.573 31.1503 32.573 30.4707 31.8934C29.791 31.2138 29.791 30.1117 30.4707 29.4321C31.1503 28.7525 32.2523 28.7525 32.932 29.4321C33.6116 30.1118 33.6116 31.2138 32.932 31.8934Z" fill="#78EAC4"/>
<path d="M32.932 31.8934C32.2523 32.573 31.1503 32.573 30.4707 31.8934C29.791 31.2138 29.791 30.1117 30.4707 29.4321C31.1503 28.7525 32.2523 28.7525 32.932 29.4321C33.6116 30.1118 33.6116 31.2138 32.932 31.8934Z" fill="#8BB6EF"/>
<path d="M9.47179 36.9956C9.3302 36.9956 9.19012 36.9666 9.06015 36.9104C8.53134 36.6827 8.28721 36.0696 8.51498 35.5408L9.83507 32.4747C10.0627 31.946 10.6761 31.7014 11.2047 31.9295C11.7335 32.1571 11.9776 32.7703 11.7499 33.2991L10.4298 36.3652C10.3492 36.5524 10.2155 36.7119 10.0452 36.8239C9.87496 36.936 9.67561 36.9957 9.47179 36.9956ZM12.2693 30.4986C12.1277 30.4985 11.9875 30.4695 11.8575 30.4133C11.3288 30.1857 11.0847 29.5725 11.3125 29.0436L11.7148 28.109C11.9425 27.5804 12.5554 27.3358 13.0845 27.5639C13.6132 27.7916 13.8574 28.4047 13.6297 28.9336L13.2273 29.8683C13.1467 30.0554 13.013 30.2149 12.8427 30.3269C12.6724 30.4389 12.4731 30.4986 12.2693 30.4986Z" fill="white"/>
<path d="M20.4529 0.255179L21.3092 2.66291C21.3459 2.766 21.4184 2.84773 21.51 2.889L23.6491 3.85281C23.9513 3.98894 23.9513 4.47043 23.6491 4.60667L21.51 5.57047C21.4184 5.61175 21.3459 5.69347 21.3092 5.79646L20.4529 8.20419C20.332 8.54432 19.9041 8.54432 19.7832 8.20419L18.927 5.79646C18.8903 5.69337 18.8177 5.61164 18.7261 5.57047L16.587 4.60667C16.2848 4.47053 16.2848 3.98905 16.587 3.85281L18.7261 2.889C18.8177 2.84773 18.8903 2.766 18.927 2.66291L19.7832 0.255179C19.9041 -0.0850596 20.332 -0.0850596 20.4529 0.255179Z" fill="#F7C4DB"/>
<path d="M49.4587 21.9001L50.0938 23.6861C50.121 23.7626 50.1748 23.8231 50.2427 23.8538L51.8295 24.5687C52.0537 24.6697 52.0537 25.0268 51.8295 25.1278L50.2427 25.8427C50.1748 25.8733 50.121 25.9339 50.0938 26.0104L49.4587 27.7963C49.3689 28.0487 49.0516 28.0487 48.9618 27.7963L48.3267 26.0104C48.2995 25.9339 48.2457 25.8733 48.1778 25.8427L46.591 25.1278C46.3668 25.0268 46.3668 24.6697 46.591 24.5687L48.1778 23.8538C48.2457 23.8231 48.2995 23.7626 48.3267 23.6861L48.9618 21.9001C49.0516 21.6479 49.3689 21.6479 49.4587 21.9001Z" fill="#CAB4EF"/>
<path d="M37.6483 8.4509C38.0937 8.4509 38.4548 8.08981 38.4548 7.64439C38.4548 7.19897 38.0937 6.83789 37.6483 6.83789C37.2029 6.83789 36.8418 7.19897 36.8418 7.64439C36.8418 8.08981 37.2029 8.4509 37.6483 8.4509Z" fill="#78EAC4"/>
<path d="M49.8391 2.65135C49.9393 1.83526 49.3589 1.09246 48.5428 0.992249C47.7266 0.89204 46.9838 1.47237 46.8836 2.28846C46.7834 3.10454 47.3638 3.84735 48.1799 3.94756C48.9961 4.04777 49.7389 3.46744 49.8391 2.65135Z" fill="#8BB6EF"/>
</svg>
