<svg width="127" height="32" viewBox="0 0 127 32" fill="none" xmlns="http://www.w3.org/2000/svg">
<rect y="0.25" width="31.5" height="31.5" rx="2.40001" fill="#5A42DE"/>
<path fill-rule="evenodd" clip-rule="evenodd" d="M15.7491 24.6498L20.4294 16.2745L22.3991 12.7498H17.4761L15.7491 15.8403L14.022 12.7498H9.09912L11.0689 16.2745L15.7491 24.6498Z" fill="white"/>
<path fill-rule="evenodd" clip-rule="evenodd" d="M4.76845 12.4283H9.43979L7.17085 7.35034H2.49951L4.76845 12.4283Z" fill="white"/>
<path fill-rule="evenodd" clip-rule="evenodd" d="M24.3295 7.35034L22.0605 12.4283H26.7318L29.0007 7.35034H24.3295Z" fill="white"/>
<path d="M45.044 19.832H53.18V23H40.46V20.336L48.5 9.368H40.676V6.2H53.06V8.864L45.044 19.832ZM66.8786 17.888H58.0946C58.4066 19.592 59.5586 20.432 61.3826 20.432C62.6786 20.432 63.7346 20 64.5506 19.112L66.4946 21.128C65.3186 22.544 63.4946 23.336 61.2626 23.336C57.3026 23.336 54.6626 20.816 54.6626 16.928C54.6626 13.136 57.1826 10.424 60.9266 10.424C64.5506 10.424 66.9506 12.92 66.9506 16.712C66.9506 17.072 66.9266 17.48 66.8786 17.888ZM58.0946 15.68H63.5666C63.4466 14.144 62.5106 13.304 60.9506 13.304C59.3906 13.304 58.3826 14.144 58.0946 15.68ZM80.9159 14.984V23H77.5079V15.872C77.5079 14.264 76.8599 13.52 75.4199 13.52C73.8119 13.52 72.8759 14.456 72.8759 16.088V23H69.4679V10.76H72.8039V12.536C73.4759 11.216 74.9159 10.424 76.7159 10.424C79.3319 10.424 80.9159 12.08 80.9159 14.984ZM92.8769 5.432H96.2849V23H92.9249V21.176C92.2289 22.52 90.6689 23.336 88.9169 23.336C85.7249 23.336 83.3969 20.672 83.3969 16.88C83.3969 13.088 85.7249 10.424 88.9169 10.424C90.6449 10.424 92.1329 11.168 92.8769 12.488V5.432ZM92.9969 16.88C92.9969 14.84 91.8209 13.496 89.9249 13.496C88.0289 13.496 86.8529 14.84 86.8529 16.88C86.8529 18.92 88.0289 20.264 89.9249 20.264C91.8209 20.264 92.9969 18.92 92.9969 16.88ZM107.434 10.76H111.082L106.474 23H102.754L98.1463 10.76H101.794L104.626 19.064L107.434 10.76ZM111.874 16.88C111.874 13.256 114.465 10.424 118.402 10.424C122.338 10.424 124.954 13.256 124.954 16.88C124.954 20.504 122.338 23.336 118.402 23.336C114.465 23.336 111.874 20.48 111.874 16.88ZM121.474 16.88C121.474 14.84 120.298 13.496 118.402 13.496C116.506 13.496 115.33 14.84 115.33 16.88C115.33 18.92 116.506 20.264 118.402 20.264C120.298 20.264 121.474 18.92 121.474 16.88Z" fill="#18181B"/>
</svg>
